<?xml version="1.0" standalone="no"?>
<!DOCTYPE svg PUBLIC "-//W3C//DTD SVG 20010904//EN"
 "http://www.w3.org/TR/2001/REC-SVG-20010904/DTD/svg10.dtd">
<svg version="1.0" xmlns="http://www.w3.org/2000/svg"
 width="240.000000pt" height="240.000000pt" viewBox="0 0 240.000000 240.000000"
 preserveAspectRatio="xMidYMid meet">

<g transform="translate(0.000000,240.000000) scale(0.100000,-0.100000)"
fill="#000000" stroke="none">
<path d="M0 1200 l0 -1200 1200 0 1200 0 0 1200 0 1200 -1200 0 -1200 0 0
-1200z m2250 825 l0 -225 -75 0 -75 0 0 -75 0 -75 -75 0 -75 0 0 -75 0 -75
-75 0 -75 0 0 -75 0 -75 -75 0 -75 0 0 -75 0 -75 -75 0 -75 0 0 -75 0 -75 -75
0 -75 0 0 -75 0 -75 -75 0 -75 0 0 -150 0 -150 75 0 75 0 0 -75 0 -75 75 0 75
0 0 -75 0 -75 -75 0 -75 0 0 -75 0 -75 -75 0 -75 0 0 75 0 75 -75 0 -75 0 0
75 0 75 -75 0 -75 0 0 75 0 75 -75 0 -75 0 0 -75 0 -75 -75 0 -75 0 0 -150 0
-150 -225 0 -225 0 0 225 0 225 150 0 150 0 0 75 0 75 75 0 75 0 0 75 0 75
-75 0 -75 0 0 75 0 75 -75 0 -75 0 0 75 0 75 -75 0 -75 0 0 75 0 75 75 0 75 0
0 75 0 75 75 0 75 0 0 -75 0 -75 75 0 75 0 0 -75 0 -75 150 0 150 0 0 75 0 75
75 0 75 0 0 75 0 75 75 0 75 0 0 75 0 75 75 0 75 0 0 75 0 75 75 0 75 0 0 75
0 75 75 0 75 0 0 75 0 75 75 0 75 0 0 75 0 75 225 0 225 0 0 -225z"/>
<path d="M750 825 l0 -75 75 0 75 0 0 75 0 75 -75 0 -75 0 0 -75z"/>
<path d="M300 375 l0 -75 75 0 75 0 0 75 0 75 -75 0 -75 0 0 -75z"/>
</g>
</svg>
